<svg width="18" height="17" viewBox="0 0 18 17" fill="none" xmlns="http://www.w3.org/2000/svg">
<path d="M10.5 3.5V1.75H7V3.5H10.5ZM1.75 6.125V14C1.75 14.4813 2.14375 14.875 2.625 14.875H14.875C15.3563 14.875 15.75 14.4813 15.75 14V6.125C15.75 5.64375 15.3563 5.25 14.875 5.25H2.625C2.14375 5.25 1.75 5.64375 1.75 6.125ZM15.75 3.5C16.7213 3.5 17.5 4.27875 17.5 5.25V14.875C17.5 15.8463 16.7213 16.625 15.75 16.625H1.75C0.77875 16.625 0 15.8463 0 14.875L0.00874999 5.25C0.00874999 4.27875 0.77875 3.5 1.75 3.5H5.25V1.75C5.25 0.77875 6.02875 0 7 0H10.5C11.4713 0 12.25 0.77875 12.25 1.75V3.5H15.75Z" fill="#25C9D0"/>
</svg>
