<svg width="17" height="17" viewBox="0 0 17 17" fill="none" xmlns="http://www.w3.org/2000/svg">
<g clip-path="url(#clip0_5_4602)">
<path fill-rule="evenodd" clip-rule="evenodd" d="M14.5098 14.51C17.8301 11.1897 17.8301 5.81066 14.5098 2.49028C13.786 1.76645 12.6039 1.76645 11.8801 2.49028C11.1563 3.21412 11.1563 4.39618 11.8801 5.12002C13.7461 6.98607 13.7461 10.0142 11.8801 11.8803C10.0141 13.7463 6.98595 13.7463 5.11994 11.8803C4.18359 10.9439 3.71875 9.72204 3.71875 8.50016C3.71875 4.44266 6.56095 1.04923 10.3594 0.205861C9.76173 0.073049 9.13751 0 8.50002 0C3.80507 0 0 3.80514 0 8.50016C0 9.58923 0.205857 10.6783 0.624223 11.701C1.52734 13.846 3.16094 15.4729 5.19297 16.3362C6.91289 17.0335 8.6793 17.173 10.3594 16.7944C11.8801 16.4558 13.3278 15.6921 14.5098 14.51Z" fill="#25C9D0"/>
</g>
<defs>
<clipPath id="clip0_5_4602">
<rect width="17" height="17" fill="white"/>
</clipPath>
</defs>
</svg>
