<svg width="18" height="18" viewBox="0 0 18 18" fill="none" xmlns="http://www.w3.org/2000/svg">
<path d="M3.10625 13.6719C4.025 13.0885 4.93281 12.6474 5.82969 12.3484C6.72656 12.0495 7.7 11.9 8.75 11.9C9.8 11.9 10.7771 12.0495 11.6812 12.3484C12.5854 12.6474 13.4969 13.0885 14.4156 13.6719C15.0573 12.8844 15.513 12.0896 15.7828 11.2875C16.0526 10.4854 16.1875 9.63958 16.1875 8.75C16.1875 6.63542 15.4766 4.86719 14.0547 3.44531C12.6328 2.02344 10.8646 1.3125 8.75 1.3125C6.63542 1.3125 4.86719 2.02344 3.44531 3.44531C2.02344 4.86719 1.3125 6.63542 1.3125 8.75C1.3125 9.63958 1.45104 10.4854 1.72812 11.2875C2.00521 12.0896 2.46458 12.8844 3.10625 13.6719ZM8.74593 9.40625C7.90281 9.40625 7.19323 9.11687 6.61719 8.53812C6.04115 7.95937 5.75312 7.24843 5.75312 6.40531C5.75312 5.56219 6.0425 4.8526 6.62126 4.27656C7.20001 3.70052 7.91095 3.4125 8.75407 3.4125C9.59719 3.4125 10.3068 3.70188 10.8828 4.28063C11.4589 4.85939 11.7469 5.57032 11.7469 6.41344C11.7469 7.25656 11.4575 7.96615 10.8787 8.54219C10.3 9.11823 9.58905 9.40625 8.74593 9.40625ZM8.74114 17.5C7.52859 17.5 6.38909 17.2703 5.32263 16.8109C4.25616 16.3516 3.32848 15.7245 2.53958 14.9297C1.75069 14.1349 1.13021 13.2064 0.678125 12.1441C0.226042 11.0819 0 9.94684 0 8.73906C0 7.53129 0.229687 6.39627 0.689062 5.33402C1.14844 4.27176 1.77552 3.34687 2.57031 2.55937C3.3651 1.77187 4.29363 1.14844 5.3559 0.689062C6.41815 0.229687 7.55316 0 8.76094 0C9.96871 0 11.1037 0.229687 12.166 0.689062C13.2282 1.14844 14.1531 1.77187 14.9406 2.55937C15.7281 3.34687 16.3516 4.27292 16.8109 5.3375C17.2703 6.40208 17.5 7.53764 17.5 8.74418C17.5 9.95072 17.2703 11.0846 16.8109 12.1457C16.3516 13.2069 15.7281 14.1349 14.9406 14.9297C14.1531 15.7245 13.2261 16.3516 12.1597 16.8109C11.0932 17.2703 9.9537 17.5 8.74114 17.5Z" fill="#25C9D0"/>
</svg>
