<svg width="19" height="19" viewBox="0 0 19 19" fill="none" xmlns="http://www.w3.org/2000/svg">
<path d="M4.42828 6.43907H1.80328C1.32203 6.43907 0.928282 6.04532 0.928282 5.56407C0.928282 5.08281 1.32203 4.68906 1.80328 4.68906H4.42828C4.90953 4.68906 5.30328 5.08281 5.30328 5.56407C5.30328 6.04532 4.90953 6.43907 4.42828 6.43907ZM4.42828 9.06407H1.80328C1.32203 9.06407 0.928282 9.45782 0.928282 9.93907C0.928282 10.4203 1.32203 10.8141 1.80328 10.8141H4.42828C4.90953 10.8141 5.30328 10.4203 5.30328 9.93907C5.30328 9.45782 4.90953 9.06407 4.42828 9.06407ZM16.5733 14.5678L13.8433 11.8378C13.0908 12.3278 12.1895 12.6078 11.2183 12.5553C9.14453 12.4591 7.36828 10.8403 7.08828 8.78407C6.70328 5.85282 9.23203 3.37656 12.1895 3.87532C13.8958 4.16407 15.3133 5.49407 15.6895 7.18282C15.9783 8.46032 15.6983 9.65032 15.077 10.5953L17.8158 13.3341C18.157 13.6753 18.157 14.2266 17.8158 14.5678C17.4745 14.9091 16.9145 14.9091 16.5733 14.5678ZM14.0533 8.18906C14.0533 6.74531 12.872 5.56407 11.4283 5.56407C9.98453 5.56407 8.80328 6.74531 8.80328 8.18906C8.80328 9.63282 9.98453 10.8141 11.4283 10.8141C12.872 10.8141 14.0533 9.63282 14.0533 8.18906ZM1.80328 15.1891H8.80328C9.28453 15.1891 9.67828 14.7953 9.67828 14.3141C9.67828 13.8328 9.28453 13.4391 8.80328 13.4391H1.80328C1.32203 13.4391 0.928282 13.8328 0.928282 14.3141C0.928282 14.7953 1.32203 15.1891 1.80328 15.1891Z" fill="#25C9D0"/>
</svg>
