<svg width="19" height="19" viewBox="0 0 19 19" fill="none" xmlns="http://www.w3.org/2000/svg">
<path d="M9.6757 15.7187C9.5332 15.8612 9.27987 15.8849 9.11362 15.7187C8.97112 15.5762 8.94737 15.3228 9.11362 15.1566L11.7974 12.4728L10.6811 11.3566L7.99737 14.0403C7.84695 14.1987 7.59362 14.1907 7.43529 14.0403C7.26904 13.8741 7.29279 13.6207 7.43529 13.4782L10.119 10.7945L9.00279 9.67824L6.31904 12.362C6.17654 12.5045 5.9232 12.5282 5.75695 12.362C5.60654 12.2116 5.60654 11.9582 5.75695 11.7999L8.4407 9.11615L7.31654 7.9999L4.63279 10.6837C4.49029 10.8262 4.23695 10.8499 4.0707 10.6837C3.92029 10.5253 3.92029 10.2799 4.0707 10.1216L7.5382 6.65407L9.01862 8.12657C9.7707 8.87865 11.069 8.87074 11.8211 8.12657C12.597 7.35074 12.597 6.0999 11.8211 5.32407L10.3486 3.85157L10.5703 3.6299C11.1878 3.0124 12.1932 3.0124 12.8107 3.6299L16.1674 6.98657C16.7849 7.60407 16.7849 8.60949 16.1674 9.22699L9.6757 15.7187ZM17.2836 10.3512C18.5186 9.11615 18.5186 7.11324 17.2836 5.87032L13.927 2.51365C12.692 1.27865 10.689 1.27865 9.44612 2.51365L9.22445 2.73532L9.00279 2.51365C7.76779 1.27865 5.76487 1.27865 4.52195 2.51365L1.71945 5.31615C0.595288 6.44032 0.492371 8.1899 1.40279 9.4249L2.5507 8.27699C2.24195 7.68324 2.34487 6.93115 2.84362 6.4324L5.64612 3.6299C6.26362 3.0124 7.26904 3.0124 7.88654 3.6299L10.7049 6.44824C10.8474 6.59074 10.8711 6.84407 10.7049 7.01032C10.5386 7.17657 10.2853 7.15282 10.1428 7.01032L7.5382 4.41365L2.94654 8.9974C2.1707 9.76532 2.1707 11.0241 2.94654 11.7999C3.25529 12.1087 3.65112 12.2987 4.0707 12.3541C4.12612 12.7657 4.3082 13.1616 4.62487 13.4782C4.94154 13.7949 5.33737 13.977 5.74904 14.0324C5.80445 14.4441 5.98654 14.8399 6.3032 15.1566C6.61987 15.4732 7.0157 15.6553 7.42737 15.7107C7.48279 16.1382 7.67279 16.5262 7.98154 16.8349C8.35362 17.207 8.85237 17.4128 9.38279 17.4128C9.9132 17.4128 10.412 17.207 10.784 16.8349L17.2836 10.3512Z" fill="#25C9D0"/>
</svg>
