<svg width="20" height="15" viewBox="0 0 20 15" fill="none" xmlns="http://www.w3.org/2000/svg">
<path d="M14.4375 0C12.7312 0 10.8937 0.35 9.625 1.3125C8.35625 0.35 6.51875 0 4.8125 0C3.54375 0 2.19625 0.1925 1.0675 0.69125C0.42875 0.98 0 1.60125 0 2.31V12.18C0 13.3175 1.0675 14.1575 2.17 13.8775C3.0275 13.6588 3.9375 13.5625 4.8125 13.5625C6.1775 13.5625 7.63 13.79 8.8025 14.3675C9.3275 14.63 9.9225 14.63 10.4387 14.3675C11.6112 13.7813 13.0637 13.5625 14.4287 13.5625C15.3037 13.5625 16.2137 13.6588 17.0712 13.8775C18.1737 14.1663 19.2412 13.3263 19.2412 12.18V2.31C19.2412 1.60125 18.8125 0.98 18.1737 0.69125C17.0537 0.1925 15.7062 0 14.4375 0ZM17.5 11.1387C17.5 11.69 16.9925 12.0925 16.45 11.9962C15.7937 11.8737 15.1112 11.8213 14.4375 11.8213C12.95 11.8213 10.8062 12.39 9.625 13.1338V3.0625C10.8062 2.31875 12.95 1.75 14.4375 1.75C15.2425 1.75 16.0387 1.82875 16.8 1.995C17.2025 2.0825 17.5 2.44125 17.5 2.8525V11.1387Z" fill="#25C9D0"/>
<path d="M11.3575 5.69625C11.0775 5.69625 10.8237 5.52125 10.7362 5.24125C10.6225 4.9 10.815 4.52375 11.1562 4.41875C12.5037 3.98125 14.245 3.84125 15.8462 4.025C16.205 4.06875 16.4675 4.3925 16.4237 4.75125C16.38 5.11 16.0562 5.3725 15.6975 5.32875C14.28 5.1625 12.7312 5.29375 11.5587 5.67C11.4887 5.67875 11.4187 5.69625 11.3575 5.69625Z" fill="#25C9D0"/>
<path d="M11.3575 8.02375C11.0775 8.02375 10.8237 7.84875 10.7362 7.56875C10.6225 7.2275 10.815 6.85125 11.1562 6.74625C12.495 6.30875 14.245 6.16875 15.8462 6.3525C16.205 6.39625 16.4675 6.72 16.4237 7.07875C16.38 7.4375 16.0562 7.7 15.6975 7.65625C14.28 7.49 12.7312 7.62125 11.5587 7.9975C11.4887 8.015 11.4187 8.02375 11.3575 8.02375Z" fill="#25C9D0"/>
<path d="M11.3575 10.3512C11.0775 10.3512 10.8237 10.1763 10.7362 9.89625C10.6225 9.555 10.815 9.17875 11.1562 9.07375C12.495 8.63625 14.245 8.49625 15.8462 8.68C16.205 8.72375 16.4675 9.0475 16.4237 9.40625C16.38 9.765 16.0562 10.0187 15.6975 9.98375C14.28 9.8175 12.7312 9.94875 11.5587 10.325C11.4887 10.3425 11.4187 10.3512 11.3575 10.3512Z" fill="#25C9D0"/>
</svg>
