<svg width="18" height="16" viewBox="0 0 18 16" fill="none" xmlns="http://www.w3.org/2000/svg">
<path d="M3.5 8.75C1.575 8.75 0 10.325 0 12.25C0 14.175 1.575 15.75 3.5 15.75C5.425 15.75 7 14.175 7 12.25C7 10.325 5.425 8.75 3.5 8.75ZM8.75 0C6.825 0 5.25 1.575 5.25 3.5C5.25 5.425 6.825 7 8.75 7C10.675 7 12.25 5.425 12.25 3.5C12.25 1.575 10.675 0 8.75 0ZM14 8.75C12.075 8.75 10.5 10.325 10.5 12.25C10.5 14.175 12.075 15.75 14 15.75C15.925 15.75 17.5 14.175 17.5 12.25C17.5 10.325 15.925 8.75 14 8.75Z" fill="#25C9D0"/>
</svg>
