<svg width="18" height="18" viewBox="0 0 18 18" fill="none" xmlns="http://www.w3.org/2000/svg">
<path d="M8.88343 1.53752C11.2751 1.53752 11.6168 1.53752 12.471 1.53752C13.3251 1.53752 13.8376 1.70835 14.1793 1.87919C14.521 2.05002 14.8627 2.22086 15.2043 2.56253C15.546 2.9042 15.7168 3.24587 15.8877 3.58754C16.0585 3.92921 16.2293 4.44171 16.2293 5.29589C16.2293 6.15007 16.2293 6.49174 16.2293 8.88343C16.2293 11.2751 16.2293 11.6168 16.2293 12.471C16.2293 13.3251 16.0585 13.8377 15.8877 14.1793C15.7168 14.521 15.546 14.8627 15.2043 15.2043C14.8627 15.546 14.521 15.7168 14.1793 15.8877C13.8376 16.0585 13.3251 16.2293 12.471 16.2293C11.6168 16.2293 11.2751 16.2293 8.88343 16.2293C6.49174 16.2293 6.15006 16.2293 5.29589 16.2293C4.44171 16.2293 3.92921 16.0585 3.58754 15.8877C3.24587 15.7168 2.9042 15.546 2.56253 15.2043C2.22086 14.8627 2.05002 14.521 1.87919 14.1793C1.70835 13.8377 1.53752 13.3251 1.53752 12.471C1.53752 11.6168 1.53752 11.2751 1.53752 8.88343C1.53752 6.49174 1.53752 6.15007 1.53752 5.29589C1.53752 4.44171 1.70835 3.92921 1.87919 3.58754C2.05002 3.24587 2.39169 2.9042 2.56253 2.56253C2.9042 2.39169 3.24587 2.05002 3.58754 1.87919C3.92921 1.70835 4.44171 1.53752 5.29589 1.53752C6.15006 1.53752 6.49174 1.53752 8.88343 1.53752ZM8.88343 0C6.49174 0 6.15006 0 5.29589 0C4.27088 0 3.75837 0.170835 3.07503 0.34167C2.56253 0.68334 2.05002 1.02501 1.53752 1.53752C1.02501 2.05002 0.68334 2.56253 0.512505 3.07503C0.170835 3.58754 0.170835 4.27088 0 5.29589C0 6.3209 0 6.49174 0 8.88343C0 11.2751 0 11.6168 0 12.471C0 13.496 0.170835 14.0085 0.34167 14.6918C0.512505 15.2043 0.854175 15.7168 1.36668 16.2293C1.87919 16.7418 2.39169 17.0835 2.9042 17.2544C3.4167 17.4252 4.10004 17.596 5.12505 17.596C6.15007 17.596 6.3209 17.596 8.71259 17.596C11.1043 17.596 11.446 17.596 12.3001 17.596C13.3251 17.596 13.8376 17.4252 14.521 17.2544C15.0335 17.0835 15.546 16.7418 16.0585 16.2293C16.571 15.7168 16.9127 15.2043 17.0835 14.6918C17.2543 14.1793 17.4252 13.496 17.4252 12.471C17.4252 11.446 17.4252 11.2751 17.4252 8.88343C17.4252 6.49174 17.4252 6.15007 17.4252 5.29589C17.4252 4.27088 17.2543 3.75837 17.0835 3.07503C16.9127 2.56253 16.571 2.05002 16.0585 1.53752C15.546 1.02501 15.0335 0.68334 14.521 0.512505C14.0085 0.34167 13.3251 0.170835 12.3001 0.170835C11.6168 -1.65467e-07 11.2751 0 8.88343 0Z" fill="#555555"/>
<path d="M8.88306 4.27051C6.32053 4.27051 4.27051 6.32053 4.27051 8.88306C4.27051 11.4456 6.32053 13.4956 8.88306 13.4956C11.4456 13.4956 13.4956 11.4456 13.4956 8.88306C13.4956 6.32053 11.4456 4.27051 8.88306 4.27051ZM8.88306 11.7873C7.17471 11.7873 5.97886 10.4206 5.97886 8.88306C5.97886 7.34554 7.34554 5.97886 8.88306 5.97886C10.5914 5.97886 11.7873 7.34554 11.7873 8.88306C11.7873 10.4206 10.5914 11.7873 8.88306 11.7873Z" fill="#555555"/>
<path d="M13.6666 5.12424C14.2327 5.12424 14.6916 4.66533 14.6916 4.09923C14.6916 3.53313 14.2327 3.07422 13.6666 3.07422C13.1005 3.07422 12.6416 3.53313 12.6416 4.09923C12.6416 4.66533 13.1005 5.12424 13.6666 5.12424Z" fill="#555555"/>
</svg>
