<svg width="20" height="20" viewBox="0 0 20 20" fill="none" xmlns="http://www.w3.org/2000/svg">
<path d="M4.49803 6.35449H0.171875V19.4158H4.49803V6.35449Z" fill="#555555"/>
<path fill-rule="evenodd" clip-rule="evenodd" d="M4.84525 2.29449C4.84525 3.52998 3.98003 4.58897 2.42263 4.58897C1.03827 4.58897 0 3.52998 0 2.29449C0 1.05899 1.03827 0 2.42263 0C3.80699 0 4.67221 1.05899 4.84525 2.29449Z" fill="#555555"/>
<path fill-rule="evenodd" clip-rule="evenodd" d="M19.9014 11.8257V19.4155H15.5753V12.3552C15.5753 10.5902 14.8831 9.35461 13.4987 9.35461C12.2874 9.35461 11.5952 10.2371 11.2492 10.9432C11.0761 11.2962 11.0761 11.6492 11.0761 12.0022V19.239H6.75C6.75 19.239 6.75 7.41303 6.75 6.17748H11.0761V8.11906C11.5952 7.23652 12.6335 6.00098 14.8831 6.00098C17.8249 6.00098 19.9014 7.94255 19.9014 11.8257Z" fill="#555555"/>
</svg>
