<svg width="21" height="18" viewBox="0 0 21 18" fill="none" xmlns="http://www.w3.org/2000/svg">
<path d="M20.1585 4.27088C19.9877 6.3209 18.621 8.88343 16.0585 12.3001C13.3251 15.8877 10.9334 17.596 9.05426 17.596C7.85842 17.596 6.83341 16.571 6.15007 14.3502C5.63756 12.3001 5.12505 10.4209 4.44171 8.37092C3.92921 6.15007 3.24587 5.12506 2.56253 5.12506C2.39169 5.12506 1.87919 5.46673 1.02501 6.15007L0 4.78339C1.02501 3.92921 2.05002 3.07503 2.9042 2.22086C4.27088 1.02501 5.29589 0.512505 5.97923 0.34167C7.51675 0.170835 8.54176 1.19585 8.88343 3.58754C9.2251 6.15007 9.56677 7.68758 9.7376 8.20009C10.2501 10.2501 10.7626 11.2751 11.2751 11.2751C11.6168 11.2751 12.3001 10.5918 13.1543 9.2251C14.0085 7.85842 14.521 6.83341 14.521 6.15007C14.6918 4.95422 14.1793 4.44171 13.1543 4.44171C12.6418 4.44171 12.1293 4.61255 11.6168 4.78339C12.6418 1.53752 14.521 0 17.2544 0C19.3044 0.170835 20.3294 1.53752 20.1585 4.27088Z" fill="#555555"/>
</svg>
